# AST/ASF file generated using VICON BodyLanguage
# -----------------------------------------------
:version 1.10
:name VICON
:units
  mass 1.0
  length 0.45
  angle deg
:documentation
   .ast/.asf automatically generated from VICON data using
   VICON BodyBuilder and BodyLanguage model FoxedUp or BRILLIANT.MOD
:root
   order TX TY TZ RX RY RZ
   axis XYZ
   position 0 0 0  
   orientation 0 0 0 
:bonedata
  begin
     id 1 
     name lhipjoint
     direction 0.597014 -0.743513 0.301268 
     length 2.48253 
     axis 0 0 0  XYZ
  end
  begin
     id 2 
     name lfemur
     direction 0.34202 -0.939693 0  
     length 7.51389  
     axis 0 0 20  XYZ
    dof rx ry rz
    limits (-160.0 20.0)
           (-70.0 70.0)
           (-60.0 70.0)
  end
  begin
     id 3 
     name ltibia
     direction 0.34202 -0.939693 0   
     length 7.54147   
     axis 0 0 20   XYZ
    dof rx
    limits (-10.0 170.0)
  end
  begin
     id 4 
     name lfoot
     direction 0.10378 -0.285133 0.952853   
     length 2.2132   
     axis -90 7.62852e-016 20   XYZ
    dof rx rz
    limits (-45.0 90.0)
           (-70.0 20.0)
  end
  begin
     id 5 
     name ltoes
     direction 1.5354e-011 -4.2171e-011 1   
     length 1.10362   
     axis -90 7.62852e-016 20   XYZ
    dof rx
    limits (-90.0 20.0)
  end
  begin
     id 6 
     name rhipjoint
     direction -0.591912 -0.747009 0.302685   
     length 2.47092  
     axis 0 0 0  XYZ 
  end
  begin
     id 7 
     name rfemur
     direction -0.34202 -0.939693 0   
     length 7.69991   
     axis 0 0 -20   XYZ
    dof rx ry rz
    limits (-160.0 20.0)
           (-70.0 70.0)
           (-70.0 60.0)
  end
  begin
     id 8 
     name rtibia
     direction -0.34202 -0.939693 0   
     length 7.40774   
     axis 0 0 -20   XYZ
    dof rx
    limits (-10.0 170.0)
 end
 begin
     id 9 
     name rfoot
     direction -0.0916245 -0.251736 0.963449   
     length 2.08235  
     axis -90 -7.62852e-016 -20   XYZ
    dof rx rz
    limits (-45.0 90.0)
           (-20.0 70.0)
  end
  begin
     id 10 
     name rtoes
     direction -1.53527e-011 -4.21878e-011 1   
     length 1.04369   
     axis -90 -7.62852e-016 -20   XYZ
    dof rx
    limits (-90.0 20.0)
  end
  begin
     id 11 
     name lowerback
     direction -0.0122523 0.991496 -0.12956   
     length 2.10814   
     axis 0 0 0   XYZ
    dof rx ry rz
    limits (-20.0 45.0)
           (-30.0 30.0)
           (-30.0 30.0)
  end
  begin
     id 12 
     name upperback
     direction 0.012378 0.999784 -0.0167122   
     length 2.11728   
     axis 0 0 0   XYZ
    dof rx ry rz
    limits (-20.0 45.0)
           (-30.0 30.0)
           (-30.0 30.0)
  end
  begin
     id 13 
     name thorax
     direction 0.0187236 0.998893 0.0431542   
     length 2.15267   
     axis 0 0 0   XYZ
    dof rx ry rz
    limits (-20.0 45.0)
           (-30.0 30.0)
           (-30.0 30.0)
  end
  begin
     id 14 
     name lowerneck
     direction 0.0165467 0.987304 0.157979   
     length 1.72129   
     axis 0 0 0   XYZ
    dof rx ry rz
    limits (-20.0 45.0)
           (-30.0 30.0)
           (-30.0 30.0)
  end
  begin
     id 15 
     name upperneck
     direction -0.0560236 0.986819 -0.151818   
     length 1.75382   
     axis 0 0 0   XYZ
    dof rx ry rz
    limits (-20.0 45.0)
           (-30.0 30.0)
           (-30.0 30.0)
  end
  begin
     id 16
     name head
     direction -0.0173602 0.99745 -0.0692312  
     length 1.76328  
     axis 0 0 0   XYZ
    dof rx ry rz
    limits (-20.0 45.0)
           (-30.0 30.0)
           (-30.0 30.0)
  end
  begin
     id 17 
     name lclavicle
     direction 0.957734 0.271724 -0.094399  
     length 3.5782  
     axis 0 0 0   XYZ
    dof ry rz
    limits (-20.0 10.0)
           (0.0 20.0)
  end
  begin
     id 18 
     name lhumerus
     direction 1 -4.48963e-011 1.21581e-027   
     length 5.25525   
     axis 180 -30 -90   XYZ
    dof rx ry rz
    limits (-60.0 90.0)
           (-90.0 90.0)
           (-90.0 90.0)
  end
  begin
     id 19
     name lradius
     direction 1 -4.48975e-011 3.71216e-028   
     length 3.35106   
     axis 180 -30 -90   XYZ
    dof rx
    limits (-10.0 170.0)
  end
  begin
     id 20
     name lwrist
     direction 1 -4.48957e-011 4.76535e-027   
     length 1.67553   
     axis -3.27501e-015 90 90   XYZ
    dof ry
    limits (-180.0 0.0)
 end
  begin
     id 21 
     name lhand
     direction 1 -4.49008e-011 9.52727e-027   
     length 0.574153   
     axis -6.08097e-015 90 90   XYZ
    dof rx rz
    limits (-90.0 90.0)
           (-45.0 45.0)
  end
  begin
     id 22 
     name lfingers
     direction 1 -4.48996e-011 1.90562e-026   
     length 0.462897   
     axis -1.21618e-014 90 90   XYZ
    dof rx
    limits (0.0 90.0)
  end
  begin
     id 23
     name lthumb
     direction 0.707107 -6.34908e-011 0.707107   
     length 0.66463   
     axis -90 45 -1.62303e-014   XYZ
    dof rx rz
    limits (-45.0 45.0)
           (-45.0 45.0)
  end
  begin
     id 24 
     name rclavicle
     direction -0.950439 0.29623 -0.0944132   
     length 3.45861  
     axis 0 0 0   XYZ 
    dof ry rz
    limits (-10.0 20.0)
           (-20.0 0.0)
  end
  begin
     id 25 
     name rhumerus
     direction -1 -4.48986e-011 1.25473e-027  
     length 5.33104   
     axis 180 30 90   XYZ
    dof rx ry rz
    limits (-90.0 60.0)
           (-90.0 90.0)
           (-90.0 90.0)
  end
  begin
     id 26 
     name rradius
     direction -1 -4.4894e-011 1.66273e-027   
     length 3.39883   
     axis 180 30 90   XYZ
    dof rx
    limits (-10.0 170.0)
  end
  begin
     id 27 
     name rwrist
     direction -1 -4.48946e-011 4.76572e-027   
     length 1.69941   
     axis -3.27501e-015 -90 -90   XYZ
    dof ry
    limits (-180.0 0.0)
  end
  begin
     id 28
     name rhand
     direction -1 -4.49028e-011 9.52595e-027   
     length 0.913886   
     axis -6.08097e-015 -90 -90   XYZ
    dof rx rz
    limits (-90.0 90.0)
           (-45.0 45.0)
  end
  begin
     id 29
     name rfingers
     direction -1 -4.48945e-011 1.9063e-026   
     length 0.736798   
     axis -1.21618e-014 -90 -90   XYZ
    dof rx
    limits (0.0 90.0)
  end
  begin
     id 30
     name rthumb
     direction -0.707107 -6.34966e-011 0.707107   
     length 1.0579   
     axis -90 -45 1.62303e-014   XYZ
    dof rx rz
    limits (-45.0 45.0)
           (-45.0 45.0)
  end
:hierarchy
  begin
    root lhipjoint rhipjoint lowerback
    lhipjoint lfemur
    lfemur ltibia
    ltibia lfoot
    lfoot ltoes
    rhipjoint rfemur
    rfemur rtibia
    rtibia rfoot
    rfoot rtoes
    lowerback upperback
    upperback thorax
    thorax lowerneck lclavicle rclavicle
    lowerneck upperneck
    upperneck head
    lclavicle lhumerus
    lhumerus lradius
    lradius lwrist
    lwrist lhand lthumb
    lhand lfingers
    rclavicle rhumerus
    rhumerus rradius
    rradius rwrist
    rwrist rhand rthumb
    rhand rfingers
  end

#!OML:ASF F:\VICON\USERDATA\INSTALL\rory3\rory3.ASF
:FULLY-SPECIFIED
:DEGREES
523
root -0.878965 17.4913 -13.5338 -366.343 -17.048 -352.599
lowerback 12.2337 5.58455 -17.6162
upperback 3.42691 5.13631 -0.343925
thorax -4.6274 2.67589 8.61571
lowerneck -19.0627 -8.34861 -1.1924
upperneck 15.625 -11.0837 0.108277
head 8.01778 -5.31596 -1.13762
rclavicle 1.52319e-014 -4.69132e-014
rhumerus -39.1145 23.8549 -85.5025
rradius 92.322
rwrist -30.9517
rhand 19.297 398.067
rfingers 7.12502
rthumb 43.8796 -705.86
lclavicle 1.52319e-014 -4.69132e-014
lhumerus -40.5266 6.20065 82.2585
lradius 100.731
lwrist 28.7798
lhand -17.9365 29.8588
lfingers 7.12502
lthumb 8.33162 59.6745
rfemur -10.4147 13.9766 10.6143
rtibia 44.8709
rfoot -21.5033 -5.7591
rtoes -20.1302
lfemur 9.11678 12.534 -6.37434
ltibia 29.3067
lfoot -4.76216 -3.39451
ltoes -28.4188
524
root -0.9874 17.5616 -13.5131 -366.475 -17.2862 -352.253
lowerback 11.9156 5.66135 -17.5779
upperback 3.45726 5.31235 -0.348413
thorax -4.46461 2.74829 8.57438
lowerneck -18.881 -8.35265 -0.969911
upperneck 15.6119 -11.0937 -0.189565
head 7.95061 -5.34148 -1.25892
rclavicle -3.11595e-014 7.35503e-015
rhumerus -38.801 24.3929 -84.662
rradius 92.9038
rwrist -30.9318
rhand 19.3323 397.348
rfingers 7.12502
rthumb 43.9126 -706.567
lclavicle -3.11595e-014 7.35503e-015
lhumerus -40.6691 5.37749 83.087
lradius 100.993
lwrist 29.426
lhand -17.5576 29.7526
lfingers 7.12502
lthumb 8.69731 59.5534
rfemur -9.86304 14.2807 10.6874
rtibia 44.1623
rfoot -20.929 -5.55228
rtoes -19.2211
lfemur 8.46415 13.0762 -7.63776
ltibia 31.1658
lfoot -4.96476 -6.35709
ltoes -29.1352
525
root -1.0831 17.627 -13.4908 -366.57 -17.5479 -351.931
lowerback 11.5303 5.6696 -17.4562
upperback 3.45008 5.41682 -0.395024
thorax -4.27552 2.78546 8.46071
lowerneck -18.7594 -8.29879 -0.789885
upperneck 15.9178 -11.023 -0.482902
head 8.00359 -5.32443 -1.37604
rclavicle 7.79236e-014 -2.29596e-014
rhumerus -38.4491 25.1471 -84.0519
rradius 93.3097
rwrist -30.4949
rhand 18.4752 396.847
rfingers 7.12502
rthumb 43.1121 -707.359
lclavicle 7.79236e-014 -2.29596e-014
lhumerus -40.7035 4.21584 83.9305
lradius 101.082
lwrist 30.7696
lhand -18.0257 29.5554
lfingers 7.12502
lthumb 8.24549 59.3745
rfemur -9.40634 14.4058 10.7262
rtibia 43.3662
rfoot -20.1448 -5.61045
rtoes -20.0003
lfemur 7.84218 13.7339 -8.94154
ltibia 32.9285
lfoot -5.626 -8.40209
ltoes -29.4964
526
root -1.17955 17.6869 -13.4695 -366.555 -17.7985 -352.167
lowerback 11.1544 5.63338 -16.9272
upperback 3.47115 5.51889 -0.262355
thorax -4.04454 2.81702 8.32346
lowerneck -18.808 -8.25702 -0.625262
upperneck 16.3997 -10.967 -0.774535
head 8.14613 -5.31031 -1.5065
rclavicle -1.54804e-014 5.54609e-014
rhumerus -38.0161 25.9458 -83.5487
rradius 93.7282
rwrist -29.3499
rhand 17.6581 396.589
rfingers 7.12502
rthumb 42.3476 -707.883
lclavicle -1.54804e-014 5.54609e-014
lhumerus -40.938 2.69689 84.8962
lradius 101.427
lwrist 32.5209
lhand -17.85 30.1101
lfingers 7.12502
lthumb 8.41509 59.9225
rfemur -8.89082 14.3082 11.2728
rtibia 42.5871
rfoot -19.592 -4.70257
rtoes -16.9277
lfemur 7.38223 14.3277 -9.62395
ltibia 34.3802
lfoot -6.44044 -9.46797
ltoes -30.1308
527
root -1.25909 17.7444 -13.4566 -366.442 -18.1596 -352.944
lowerback 11.0173 5.53145 -15.8276
upperback 3.46805 5.55314 0.0494035
thorax -3.92475 2.8244 8.06214
lowerneck -18.6689 -8.15329 -0.616437
upperneck 16.6732 -10.8 -0.96046
head 8.20337 -5.24757 -1.55066
rclavicle -1.19861e-014 2.50966e-015
rhumerus -37.5034 27.0576 -83.0389
rradius 94.1167
rwrist -27.92
rhand 17.1748 396.469
rfingers 7.12502
rthumb 41.8947 -708.156
lclavicle -1.19861e-014 2.50966e-015
lhumerus -41.2965 1.32488 86.1408
lradius 101.816
lwrist 33.8909
lhand -18.153 30.3674
lfingers 7.12502
lthumb 8.12269 60.1913
rfemur -8.29434 14.4175 12.3989
rtibia 41.8219
rfoot -19.0614 -4.00646
rtoes -14.9353
lfemur 6.96234 14.7168 -9.78099
ltibia 35.5062
lfoot -7.37431 -9.75361
ltoes -29.4672
528
root -1.34724 17.79 -13.4239 -366.469 -18.4422 -353.348
lowerback 10.5962 5.45346 -15.3087
upperback 3.51166 5.60219 0.308609
thorax -3.64139 2.82872 8.08192
lowerneck -18.4102 -8.0641 -0.559894
upperneck 16.9149 -10.6622 -1.16408
head 8.22556 -5.19956 -1.60478
rclavicle 2.13414e-014 1.22004e-014
rhumerus -37.1093 28.1608 -82.7409
rradius 94.5316
rwrist -26.1719
rhand 15.3688 396.318
rfingers 7.12502
rthumb 40.1986 -708.848
lclavicle 2.13414e-014 1.22004e-014
lhumerus -41.4565 -0.426407 87.4546
lradius 101.934
lwrist 35.1092
lhand -18.5211 30.536
lfingers 7.12502
lthumb 7.76737 60.3733
rfemur -7.65673 14.3558 13.0828
rtibia 41.1414
rfoot -18.6086 -3.23597
rtoes -13.7773
lfemur 6.67624 14.8937 -10.3283
ltibia 36.2588
lfoot -8.52435 -9.68228
ltoes -29.5941
529
root -1.43687 17.8219 -13.3912 -366.47 -18.636 -353.387
lowerback 10.1403 5.37983 -15.1997
upperback 3.48358 5.60115 0.387316
thorax -3.4191 2.8167 8.14023
lowerneck -18.2241 -7.98167 -0.277625
upperneck 17.0105 -10.5907 -1.36083
head 8.19815 -5.16964 -1.69694
rclavicle 2.16986e-014 -2.83268e-015
rhumerus -36.6683 29.0822 -82.8494
rradius 94.7018
rwrist -24.0939
rhand 13.2284 396.528
rfingers 7.12502
rthumb 38.1816 -709.222
lclavicle 2.16986e-014 -2.83268e-015
lhumerus -41.3588 -2.42658 88.7665
lradius 101.8
lwrist 36.3755
lhand -19.0294 30.9829
lfingers 7.12502
lthumb 7.27676 60.8378
rfemur -7.25351 14.2882 13.3027
rtibia 40.5801
rfoot -18.1994 -2.40643
rtoes -12.386
lfemur 6.37714 15.0115 -11.2259
ltibia 36.5727
lfoot -9.44452 -9.67834
ltoes -27.5844
530
root -1.52858 17.8461 -13.3558 -366.44 -18.9406 -353.628
lowerback 9.76926 5.30744 -15.1629
upperback 3.36911 5.57782 0.614608
thorax -3.35236 2.81065 8.39426
lowerneck -17.7862 -7.8522 -0.0516458
upperneck 17.0054 -10.4382 -1.55736
head 8.09775 -5.10843 -1.75598
rclavicle 8.10669e-014 -4.79071e-014
rhumerus -36.3188 30.2571 -82.9526
rradius 94.9974
rwrist -21.9774
rhand 10.996 396.307
rfingers 7.12502
rthumb 36.0704 -709.992
lclavicle 8.10669e-014 -4.79071e-014
lhumerus -41.5487 -4.40863 90.1736
lradius 101.813
lwrist 37.9716
lhand -21.5889 32.8099
lfingers 7.12502
lthumb 4.8057 62.7354
rfemur -6.88239 14.1202 13.7617
rtibia 40.1892
rfoot -17.9674 -1.55392
rtoes -11.8507
lfemur 6.23241 15.0809 -11.8728
ltibia 36.4107
lfoot -10.601 -9.48326
ltoes -27.4161
531
root -1.62417 17.8622 -13.3273 -366.41 -19.2393 -353.852
lowerback 9.36428 5.19881 -15.3164
upperback 3.26232 5.49576 0.878809
thorax -3.2613 2.77444 8.80885
lowerneck -17.1249 -7.66827 -0.0748637
upperneck 16.8497 -10.2012 -1.46425
head 7.9409 -4.99579 -1.65958
rclavicle -6.13748e-015 1.99779e-014
rhumerus -35.9693 31.5588 -83.2516
rradius 95.2598
rwrist -19.321
rhand 8.87915 396.196
rfingers 7.12502
rthumb 34.0625 -710.574
lclavicle -6.13748e-015 1.99779e-014
lhumerus -41.7227 -6.29171 91.7282
lradius 101.95
lwrist 39.3095
lhand -21.1341 32.6632
lfingers 7.12502
lthumb 5.24491 62.5783
rfemur -6.54749 14.1809 14.2486
rtibia 39.9593
rfoot -17.8638 -0.796699
rtoes -11.067
lfemur 6.11406 15.2456 -12.3832
ltibia 35.8309
lfoot -11.7142 -9.68255
ltoes -27.5279
532
root -1.71432 17.8627 -13.3023 -366.4 -19.5546 -354.183
lowerback 8.91873 5.16095 -15.2335
upperback 3.26261 5.54006 1.06143
thorax -3.03715 2.78339 8.98743
lowerneck -16.9499 -7.59223 -0.283786
upperneck 16.9155 -10.1199 -1.10575
head 7.96575 -4.9336 -1.49764
rclavicle 2.79665e-014 4.78077e-014
rhumerus -35.4042 32.2665 -83.7652
rradius 95.3156
rwrist -16.2127
rhand 6.05043 396.129
rfingers 7.12502
rthumb 31.3714 -711.201
lclavicle 2.79665e-014 4.78077e-014
lhumerus -41.8529 -8.70334 93.2744
lradius 102.149
lwrist 40.2227
lhand -20.8112 32.7066
lfingers 7.12502
lthumb 5.55664 62.6137
rfemur -6.25917 14.3733 14.8256
rtibia 39.8656
rfoot -17.7636 0.175321
rtoes -7.37872
lfemur 6.15196 15.1592 -12.7905
ltibia 34.9098
lfoot -12.9604 -10.0372
ltoes -27.2502
533
root -1.80143 17.8535 -13.2791 -366.3 -19.8035 -354.556
lowerback 8.48303 5.02112 -15.3296
upperback 3.22855 5.43299 1.36085
thorax -2.83996 2.72248 9.4192
lowerneck -17.0267 -7.38011 -0.364947
upperneck 17.1412 -9.80978 -1.12847
head 8.06018 -4.79036 -1.46772
rclavicle -3.16689e-014 7.55382e-015
rhumerus -34.9746 33.3945 -84.4146
rradius 95.4199
rwrist -12.8096
rhand 2.78333 395.796
rfingers 7.12502
rthumb 28.2535 -712.093
lclavicle -3.16689e-014 7.55382e-015
lhumerus -41.9649 -11.0557 94.8583
lradius 102.368
lwrist 41.4766
lhand -19.6145 32.9089
lfingers 7.12502
lthumb 6.71201 62.7825
rfemur -6.01884 14.5902 15.5054
rtibia 39.8278
rfoot -17.7974 0.589052
rtoes -5.80812
lfemur 6.06304 14.6846 -13.1975
ltibia 33.7804
lfoot -14.3713 -10.3767
ltoes -26.0527
